<?xml version="1.0" encoding="UTF-8" standalone="no"?>
<svg
   xmlns:dc="http://purl.org/dc/elements/1.1/"
   xmlns:cc="http://creativecommons.org/ns#"
   xmlns:rdf="http://www.w3.org/1999/02/22-rdf-syntax-ns#"
   xmlns:svg="http://www.w3.org/2000/svg"
   xmlns="http://www.w3.org/2000/svg"
   xmlns:sodipodi="http://sodipodi.sourceforge.net/DTD/sodipodi-0.dtd"
   xmlns:inkscape="http://www.inkscape.org/namespaces/inkscape"
   sodipodi:docname="gaspedal.svg"
   inkscape:version="1.0 (4035a4fb49, 2020-05-01)"
   id="svg8"
   version="1.1"
   viewBox="0 0 210 297"
   height="297mm"
   width="210mm">
  <defs
     id="defs2">
    <marker
       inkscape:isstock="true"
       style="overflow:visible"
       id="TriangleOutS"
       refX="0.0"
       refY="0.0"
       orient="auto"
       inkscape:stockid="TriangleOutS">
      <path
         transform="scale(0.2)"
         style="fill-rule:evenodd;stroke:#000000;stroke-width:1pt;stroke-opacity:1;fill:#000000;fill-opacity:1"
         d="M 5.77,0.0 L -2.88,5.0 L -2.88,-5.0 L 5.77,0.0 z "
         id="path1084" />
    </marker>
    <marker
       inkscape:isstock="true"
       style="overflow:visible"
       id="TriangleOutM"
       refX="0.0"
       refY="0.0"
       orient="auto"
       inkscape:stockid="TriangleOutM">
      <path
         transform="scale(0.4)"
         style="fill-rule:evenodd;stroke:#d88825;stroke-width:1pt;stroke-opacity:1;fill:#d88825;fill-opacity:1"
         d="M 5.77,0.0 L -2.88,5.0 L -2.88,-5.0 L 5.77,0.0 z "
         id="path1081" />
    </marker>
  </defs>
  <sodipodi:namedview
     inkscape:window-maximized="0"
     inkscape:window-y="182"
     inkscape:window-x="41"
     inkscape:window-height="1733"
     inkscape:window-width="2034"
     showgrid="false"
     inkscape:document-rotation="0"
     inkscape:current-layer="layer1"
     inkscape:document-units="mm"
     inkscape:cy="301.65614"
     inkscape:cx="192.25766"
     inkscape:zoom="1.979899"
     inkscape:pageshadow="2"
     inkscape:pageopacity="0.0"
     borderopacity="1.0"
     bordercolor="#666666"
     pagecolor="#ffffff"
     id="base" />
  <metadata
     id="metadata5">
    <rdf:RDF>
      <cc:Work
         rdf:about="">
        <dc:format>image/svg+xml</dc:format>
        <dc:type
           rdf:resource="http://purl.org/dc/dcmitype/StillImage" />
        <dc:title></dc:title>
      </cc:Work>
    </rdf:RDF>
  </metadata>
  <g
     id="layer1"
     inkscape:groupmode="layer"
     inkscape:label="Layer 1">
    <path
       id="rect833-2"
       style="opacity:0.998;fill:#000000;fill-opacity:0.18055555;stroke:#000000;stroke-width:0.352778;stroke-linejoin:bevel;stroke-miterlimit:7;stroke-dasharray:2.11667, 0.70555599999999996;stroke-dashoffset:0;stroke-opacity:0.45436507;paint-order:stroke fill markers"
       d="m 33.095273,115.11624 -1.422445,-0.74043 c -0.591027,-0.30765 0.03675,-2.18002 0.32071,-3.22093 1.514349,-5.55119 4.536374,-10.59181 7.249238,-15.66619 2.068535,-3.869171 4.021385,-7.888551 6.863171,-11.23124 0.698854,-0.822038 1.863351,-2.417941 2.454378,-2.110292 l 1.422444,0.740433 c 0.591026,0.307647 0.452789,1.746694 -0.32071,3.220938 L 35.549651,113.00595 c -0.773499,1.47425 -1.863353,2.41794 -2.454378,2.11029 z"
       sodipodi:nodetypes="ssaaasssss" />
    <path
       style="fill:#000000;fill-opacity:0.18055555;fill-rule:evenodd;stroke:#000000;stroke-width:0.352778;stroke-linecap:butt;stroke-linejoin:miter;stroke-miterlimit:7;stroke-dasharray:2.11667, 0.70555599999999996;stroke-dashoffset:0;stroke-opacity:0.45436507"
       d="m 46.105305,94.134436 c -0.355614,1.990313 2.85214,2.026375 2.85214,2.026375 0,0 15.568932,-0.498471 17.274615,-2.772714 6.133555,-8.731539 7.212542,-17.090771 8.945523,-27.628001 0,0 0.619535,-2.757692 -1.518621,-2.624058 -2.138156,0.133635 -2.229866,2.262294 -2.229866,2.262294 -1.605825,7.834451 -2.901579,18.055485 -8.234275,24.407339 -1.564762,1.788296 -13.103243,2.314898 -13.103243,2.314898 0,0 -3.63066,0.02355 -3.986273,2.013867 z"
       id="path836-4"
       sodipodi:nodetypes="zcccscccz" />
    <path
       sodipodi:nodetypes="ssaaasssss"
       d="m 38.713497,116.08967 -1.182339,-1.08335 c -0.491262,-0.45014 0.599729,-2.09623 1.143421,-3.02818 2.899505,-4.9701 7.123163,-9.0568 11.056935,-13.25613 2.999469,-3.201969 5.926067,-6.578948 9.536174,-9.072234 0.887801,-0.613152 2.425668,-1.853281 2.916931,-1.403146 l 1.182337,1.083359 c 0.491263,0.450133 -0.01472,1.804368 -1.143422,3.028182 L 41.630428,114.68653 c -1.128707,1.22382 -2.42567,1.85328 -2.916931,1.40314 z"
       style="opacity:0.998;fill:#000000;fill-opacity:1;stroke:#000000;stroke-width:0.353;stroke-linejoin:bevel;stroke-miterlimit:7;stroke-dasharray:none;stroke-dashoffset:0;stroke-opacity:0.945098;paint-order:stroke fill markers"
       id="rect833-2-5" />
    <path
       sodipodi:nodetypes="zcccscccz"
       id="path836-4-6"
       d="m 55.745593,101.18061 c 0.236178,2.008 3.316848,1.1133 3.316848,1.1133 0,0 14.757014,-4.987032 15.730771,-7.657861 3.341261,-10.133913 1.952518,-18.447299 0.558815,-29.034746 0,0 -0.205866,-2.818919 -2.213637,-2.071643 -2.007771,0.747278 -1.478927,2.811237 -1.478927,2.811237 0.732477,7.963716 2.453067,18.121868 -0.811007,25.746142 -0.97965,2.164892 -11.870867,6.011343 -11.870867,6.011343 0,0 -3.468161,1.074298 -3.231996,3.082228 z"
       style="fill:#000000;fill-opacity:1;fill-rule:evenodd;stroke:#000000;stroke-width:0.353;stroke-linecap:butt;stroke-linejoin:miter;stroke-miterlimit:7;stroke-dasharray:none;stroke-dashoffset:0;stroke-opacity:0.945098" />
    <path
       sodipodi:nodetypes="cc"
       id="path934"
       d="m 45.302184,84.523986 c 2.338608,0.601356 6.080383,2.605878 8.552626,5.479025"
       style="fill:none;fill-opacity:1;fill-rule:evenodd;stroke:#d88825;stroke-width:1.065;stroke-linecap:butt;stroke-linejoin:miter;stroke-miterlimit:4;stroke-dasharray:none;stroke-opacity:1;marker-end:url(#TriangleOutM)" />
  </g>
</svg>
