<?xml version="1.0" encoding="UTF-8" standalone="no"?>
<svg
   xmlns:dc="http://purl.org/dc/elements/1.1/"
   xmlns:cc="http://creativecommons.org/ns#"
   xmlns:rdf="http://www.w3.org/1999/02/22-rdf-syntax-ns#"
   xmlns:svg="http://www.w3.org/2000/svg"
   xmlns="http://www.w3.org/2000/svg"
   xmlns:sodipodi="http://sodipodi.sourceforge.net/DTD/sodipodi-0.dtd"
   xmlns:inkscape="http://www.inkscape.org/namespaces/inkscape"
   inkscape:export-ydpi="208.48856"
   inkscape:export-xdpi="208.48856"
   inkscape:export-filename="D:\MathworksOnedrive\OneDrive - MathWorks\Projects\2021-06-ControlsLabs\Content\SupportingFiles\CruiseControl\step.png"
   inkscape:version="1.0 (4035a4fb49, 2020-05-01)"
   sodipodi:docname="step.svg"
   id="svg127"
   version="1.1"
   height="267"
   width="363"
   style="fill-opacity:1; color-rendering:auto; color-interpolation:auto; text-rendering:auto; stroke:black; stroke-linecap:square; stroke-miterlimit:10; shape-rendering:auto; stroke-opacity:1; fill:black; stroke-dasharray:none; font-weight:normal; stroke-width:1; font-family:'Dialog'; font-style:normal; stroke-linejoin:miter; font-size:12px; stroke-dashoffset:0; image-rendering:auto;">
  <metadata
     id="metadata131">
    <rdf:RDF>
      <cc:Work
         rdf:about="">
        <dc:format>image/svg+xml</dc:format>
        <dc:type
           rdf:resource="http://purl.org/dc/dcmitype/StillImage" />
        <dc:title></dc:title>
      </cc:Work>
    </rdf:RDF>
  </metadata>
  <sodipodi:namedview
     inkscape:current-layer="g125"
     inkscape:window-maximized="0"
     inkscape:window-y="0"
     inkscape:window-x="0"
     inkscape:cy="154.96802"
     inkscape:cx="128.15584"
     inkscape:zoom="1.9465299"
     showgrid="false"
     id="namedview129"
     inkscape:window-height="1297"
     inkscape:window-width="2049"
     inkscape:pageshadow="2"
     inkscape:pageopacity="0"
     guidetolerance="10"
     gridtolerance="10"
     objecttolerance="10"
     borderopacity="1"
     bordercolor="#666666"
     pagecolor="#ffffff" />
  <!--Generated by the Batik Graphics2D SVG Generator-->
  <defs
     id="genericDefs">
    <marker
       inkscape:isstock="true"
       style="overflow:visible"
       id="marker1236"
       refX="0.0"
       refY="0.0"
       orient="auto"
       inkscape:stockid="Arrow1Lstart">
      <path
         transform="scale(0.8) translate(12.5,0)"
         style="fill-rule:evenodd;stroke:#000000;stroke-width:1pt;stroke-opacity:1;fill:#000000;fill-opacity:1"
         d="M 0.0,0.0 L 5.0,-5.0 L -12.5,0.0 L 5.0,5.0 L 0.0,0.0 z "
         id="path1234" />
    </marker>
    <marker
       inkscape:isstock="true"
       style="overflow:visible"
       id="Arrow1Lstart"
       refX="0.0"
       refY="0.0"
       orient="auto"
       inkscape:stockid="Arrow1Lstart">
      <path
         transform="scale(0.8) translate(12.5,0)"
         style="fill-rule:evenodd;stroke:#000000;stroke-width:1pt;stroke-opacity:1;fill:#000000;fill-opacity:1"
         d="M 0.0,0.0 L 5.0,-5.0 L -12.5,0.0 L 5.0,5.0 L 0.0,0.0 z "
         id="path958" />
    </marker>
  </defs>
  <g
     id="g125">
    <defs
       id="defs1">
      <clipPath
         id="clipPath1"
         clipPathUnits="userSpaceOnUse">
        <path
           id="path3"
           d="M0 0 L363 0 L363 267 L0 267 L0 0 Z" />
      </clipPath>
    </defs>
    <path
       sodipodi:nodetypes="cc"
       id="path956"
       d="M 329,56.6868 H 46.134694"
       style="fill:none;fill-rule:evenodd;stroke:#000000;stroke-width:1;stroke-linecap:butt;stroke-linejoin:miter;stroke-opacity:1;stroke-miterlimit:10;stroke-dasharray:1,2;stroke-dashoffset:0" />
    <g
       id="g37"
       style="fill:rgb(38,38,38); text-rendering:geometricPrecision; image-rendering:optimizeQuality; color-rendering:optimizeQuality; stroke-linejoin:round; stroke:rgb(38,38,38); color-interpolation:linearRGB; stroke-width:0.8333;">
      <line
         id="line17"
         y1="220"
         x2="329"
         x1="47"
         style="fill:none;"
         y2="220" />
      <line
         id="line19"
         y1="24"
         x2="329"
         x1="47"
         style="fill:none;"
         y2="24" />
      <line
         id="line21"
         y1="220"
         x2="47"
         x1="47"
         style="fill:none;"
         y2="217.18" />
      <line
         id="line23"
         y1="220"
         x2="141"
         x1="141"
         style="fill:none;"
         y2="217.18" />
      <line
         id="line25"
         y1="220"
         x2="235"
         x1="235"
         style="fill:none;"
         y2="217.18" />
      <line
         id="line27"
         y1="220"
         x2="329"
         x1="329"
         style="fill:none;"
         y2="217.18" />
      <line
         id="line29"
         y1="24"
         x2="47"
         x1="47"
         style="fill:none;"
         y2="26.82" />
      <line
         id="line31"
         y1="24"
         x2="141"
         x1="141"
         style="fill:none;"
         y2="26.82" />
      <line
         id="line33"
         y1="24"
         x2="235"
         x1="235"
         style="fill:none;"
         y2="26.82" />
      <line
         id="line35"
         y1="24"
         x2="329"
         x1="329"
         style="fill:none;"
         y2="26.82" />
    </g>
    <g
       id="g41"
       style="font-size:15px; fill:rgb(38,38,38); text-rendering:geometricPrecision; image-rendering:optimizeQuality; color-rendering:optimizeQuality; font-family:'SansSerif'; stroke:rgb(38,38,38); color-interpolation:linearRGB;"
       transform="translate(47,224.6667)">
      <path
         id="path39"
         d="M-3.875 10.7031 Q-3.875 8.7969 -3.4844 7.6406 Q-3.0938 6.4844 -2.3203 5.8516 Q-1.5469 5.2188 -0.375 5.2188 Q0.4844 5.2188 1.1406 5.5703 Q1.7969 5.9219 2.2188 6.5703 Q2.6406 7.2188 2.8828 8.1641 Q3.125 9.1094 3.125 10.7031 Q3.125 12.5938 2.7344 13.7578 Q2.3438 14.9219 1.5703 15.5547 Q0.7969 16.1875 -0.375 16.1875 Q-1.9219 16.1875 -2.8125 15.0625 Q-3.875 13.7344 -3.875 10.7031 ZM-2.5156 10.7031 Q-2.5156 13.3438 -1.8984 14.2188 Q-1.2812 15.0938 -0.375 15.0938 Q0.5312 15.0938 1.1484 14.2188 Q1.7656 13.3438 1.7656 10.7031 Q1.7656 8.0469 1.1484 7.1797 Q0.5312 6.3125 -0.3906 6.3125 Q-1.2969 6.3125 -1.8438 7.0781 Q-2.5156 8.0625 -2.5156 10.7031 Z"
         style="stroke:none;" />
    </g>
    <g
       id="g45"
       style="font-size:15px; fill:rgb(38,38,38); text-rendering:geometricPrecision; image-rendering:optimizeQuality; color-rendering:optimizeQuality; font-family:'SansSerif'; stroke:rgb(38,38,38); color-interpolation:linearRGB;"
       transform="translate(141,224.6667)">
      <path
         id="path43"
         d="M-0.9531 14.7344 L-0.9531 16 L-8.0469 16 Q-8.0625 15.5312 -7.8906 15.0781 Q-7.625 14.3594 -7.0234 13.6562 Q-6.4219 12.9531 -5.2969 12.0312 Q-3.5469 10.5938 -2.9297 9.7578 Q-2.3125 8.9219 -2.3125 8.1719 Q-2.3125 7.3906 -2.875 6.8516 Q-3.4375 6.3125 -4.3438 6.3125 Q-5.2969 6.3125 -5.8672 6.8828 Q-6.4375 7.4531 -6.4375 8.4688 L-7.7969 8.3281 Q-7.6562 6.8125 -6.75 6.0156 Q-5.8438 5.2188 -4.3125 5.2188 Q-2.7656 5.2188 -1.8672 6.0781 Q-0.9688 6.9375 -0.9688 8.2031 Q-0.9688 8.8438 -1.2266 9.4688 Q-1.4844 10.0938 -2.1016 10.7812 Q-2.7188 11.4688 -4.1406 12.6719 Q-5.3281 13.6562 -5.6641 14.0156 Q-6 14.375 -6.2188 14.7344 L-0.9531 14.7344 ZM0.4673 10.7031 Q0.4673 8.7969 0.8579 7.6406 Q1.2485 6.4844 2.022 5.8516 Q2.7954 5.2188 3.9673 5.2188 Q4.8267 5.2188 5.4829 5.5703 Q6.1392 5.9219 6.561 6.5703 Q6.9829 7.2188 7.2251 8.1641 Q7.4673 9.1094 7.4673 10.7031 Q7.4673 12.5938 7.0767 13.7578 Q6.686 14.9219 5.9126 15.5547 Q5.1392 16.1875 3.9673 16.1875 Q2.4204 16.1875 1.5298 15.0625 Q0.4673 13.7344 0.4673 10.7031 ZM1.8267 10.7031 Q1.8267 13.3438 2.4438 14.2188 Q3.061 15.0938 3.9673 15.0938 Q4.8735 15.0938 5.4907 14.2188 Q6.1079 13.3438 6.1079 10.7031 Q6.1079 8.0469 5.4907 7.1797 Q4.8735 6.3125 3.9517 6.3125 Q3.0454 6.3125 2.4985 7.0781 Q1.8267 8.0625 1.8267 10.7031 Z"
         style="stroke:none;" />
    </g>
    <g
       id="g49"
       style="font-size:15px; fill:rgb(38,38,38); text-rendering:geometricPrecision; image-rendering:optimizeQuality; color-rendering:optimizeQuality; font-family:'SansSerif'; stroke:rgb(38,38,38); color-interpolation:linearRGB;"
       transform="translate(235,224.6667)">
      <path
         id="path47"
         d="M-3.6562 16 L-3.6562 13.4219 L-8.3125 13.4219 L-8.3125 12.2188 L-3.4062 5.2656 L-2.3281 5.2656 L-2.3281 12.2188 L-0.875 12.2188 L-0.875 13.4219 L-2.3281 13.4219 L-2.3281 16 L-3.6562 16 ZM-3.6562 12.2188 L-3.6562 7.375 L-7.0156 12.2188 L-3.6562 12.2188 ZM0.4673 10.7031 Q0.4673 8.7969 0.8579 7.6406 Q1.2485 6.4844 2.022 5.8516 Q2.7954 5.2188 3.9673 5.2188 Q4.8267 5.2188 5.4829 5.5703 Q6.1392 5.9219 6.561 6.5703 Q6.9829 7.2188 7.2251 8.1641 Q7.4673 9.1094 7.4673 10.7031 Q7.4673 12.5938 7.0767 13.7578 Q6.686 14.9219 5.9126 15.5547 Q5.1392 16.1875 3.9673 16.1875 Q2.4204 16.1875 1.5298 15.0625 Q0.4673 13.7344 0.4673 10.7031 ZM1.8267 10.7031 Q1.8267 13.3438 2.4438 14.2188 Q3.061 15.0938 3.9673 15.0938 Q4.8735 15.0938 5.4907 14.2188 Q6.1079 13.3438 6.1079 10.7031 Q6.1079 8.0469 5.4907 7.1797 Q4.8735 6.3125 3.9517 6.3125 Q3.0454 6.3125 2.4985 7.0781 Q1.8267 8.0625 1.8267 10.7031 Z"
         style="stroke:none;" />
    </g>
    <g
       id="g53"
       style="font-size:15px; fill:rgb(38,38,38); text-rendering:geometricPrecision; image-rendering:optimizeQuality; color-rendering:optimizeQuality; font-family:'SansSerif'; stroke:rgb(38,38,38); color-interpolation:linearRGB;"
       transform="translate(329,224.6667)">
      <path
         id="path51"
         d="M-1.0312 7.8906 L-2.3438 8 Q-2.5156 7.2188 -2.8438 6.8594 Q-3.375 6.2969 -4.1562 6.2969 Q-4.7969 6.2969 -5.2656 6.6562 Q-5.8906 7.1094 -6.25 7.9766 Q-6.6094 8.8438 -6.625 10.4688 Q-6.1562 9.7344 -5.4609 9.3828 Q-4.7656 9.0312 -4.0156 9.0312 Q-2.7031 9.0312 -1.7734 10 Q-0.8438 10.9688 -0.8438 12.5156 Q-0.8438 13.5312 -1.2812 14.3984 Q-1.7188 15.2656 -2.4766 15.7266 Q-3.2344 16.1875 -4.2031 16.1875 Q-5.8594 16.1875 -6.8984 14.9766 Q-7.9375 13.7656 -7.9375 10.9688 Q-7.9375 7.8594 -6.7812 6.4531 Q-5.7812 5.2188 -4.0781 5.2188 Q-2.8125 5.2188 -2.0078 5.9297 Q-1.2031 6.6406 -1.0312 7.8906 ZM-6.4219 12.5156 Q-6.4219 13.2031 -6.1328 13.8281 Q-5.8438 14.4531 -5.3203 14.7734 Q-4.7969 15.0938 -4.2344 15.0938 Q-3.3906 15.0938 -2.7891 14.4219 Q-2.1875 13.75 -2.1875 12.5938 Q-2.1875 11.4844 -2.7812 10.8438 Q-3.375 10.2031 -4.2812 10.2031 Q-5.1719 10.2031 -5.7969 10.8438 Q-6.4219 11.4844 -6.4219 12.5156 ZM0.4673 10.7031 Q0.4673 8.7969 0.8579 7.6406 Q1.2485 6.4844 2.022 5.8516 Q2.7954 5.2188 3.9673 5.2188 Q4.8267 5.2188 5.4829 5.5703 Q6.1392 5.9219 6.561 6.5703 Q6.9829 7.2188 7.2251 8.1641 Q7.4673 9.1094 7.4673 10.7031 Q7.4673 12.5938 7.0767 13.7578 Q6.686 14.9219 5.9126 15.5547 Q5.1392 16.1875 3.9673 16.1875 Q2.4204 16.1875 1.5298 15.0625 Q0.4673 13.7344 0.4673 10.7031 ZM1.8267 10.7031 Q1.8267 13.3438 2.4438 14.2188 Q3.061 15.0938 3.9673 15.0938 Q4.8735 15.0938 5.4907 14.2188 Q6.1079 13.3438 6.1079 10.7031 Q6.1079 8.0469 5.4907 7.1797 Q4.8735 6.3125 3.9517 6.3125 Q3.0454 6.3125 2.4985 7.0781 Q1.8267 8.0625 1.8267 10.7031 Z"
         style="stroke:none;" />
    </g>
    <g
       id="g57"
       style="font-size:16.5px; fill:rgb(38,38,38); text-rendering:geometricPrecision; image-rendering:optimizeQuality; color-rendering:optimizeQuality; font-family:'SansSerif'; stroke:rgb(38,38,38); color-interpolation:linearRGB;"
       transform="translate(188.0001,246)">
      <path
         id="path55"
         d="M-10.375 15.7344 L-10.1719 16.9844 Q-10.7656 17.1094 -11.2344 17.1094 Q-12 17.1094 -12.4219 16.8672 Q-12.8438 16.625 -13.0156 16.2266 Q-13.1875 15.8281 -13.1875 14.5625 L-13.1875 9.7969 L-14.2188 9.7969 L-14.2188 8.7031 L-13.1875 8.7031 L-13.1875 6.6406 L-11.7812 5.7969 L-11.7812 8.7031 L-10.375 8.7031 L-10.375 9.7969 L-11.7812 9.7969 L-11.7812 14.6406 Q-11.7812 15.25 -11.7109 15.4219 Q-11.6406 15.5938 -11.4688 15.6953 Q-11.2969 15.7969 -10.9844 15.7969 Q-10.75 15.7969 -10.375 15.7344 ZM-1.5989 20.375 Q-2.7708 18.9062 -3.5755 16.9297 Q-4.3802 14.9531 -4.3802 12.8438 Q-4.3802 10.9844 -3.7708 9.2812 Q-3.0677 7.3125 -1.5989 5.3438 L-0.5989 5.3438 Q-1.5364 6.9688 -1.8489 7.6719 Q-2.3177 8.75 -2.5989 9.9219 Q-2.927 11.375 -2.927 12.8594 Q-2.927 16.6094 -0.5989 20.375 L-1.5989 20.375 ZM0.6353 14.5156 L2.0259 14.2969 Q2.1353 15.1406 2.6744 15.5859 Q3.2134 16.0312 4.1666 16.0312 Q5.1353 16.0312 5.6041 15.6328 Q6.0728 15.2344 6.0728 14.7031 Q6.0728 14.2344 5.6666 13.9531 Q5.3697 13.7656 4.2291 13.4844 Q2.6822 13.0938 2.0806 12.8047 Q1.4791 12.5156 1.1744 12.0156 Q0.8697 11.5156 0.8697 10.9062 Q0.8697 10.3438 1.1197 9.875 Q1.3697 9.4062 1.8072 9.0938 Q2.1353 8.8438 2.7056 8.6797 Q3.2759 8.5156 3.9166 8.5156 Q4.9009 8.5156 5.6353 8.7969 Q6.3697 9.0781 6.7213 9.5547 Q7.0728 10.0312 7.2134 10.8438 L5.8384 11.0312 Q5.7447 10.3906 5.2916 10.0312 Q4.8384 9.6719 4.0259 9.6719 Q3.0572 9.6719 2.6431 9.9922 Q2.2291 10.3125 2.2291 10.7344 Q2.2291 11.0156 2.4009 11.2344 Q2.5728 11.4531 2.9322 11.6094 Q3.1509 11.6875 4.1822 11.9688 Q5.6666 12.3594 6.2603 12.6172 Q6.8541 12.875 7.19 13.3594 Q7.5259 13.8438 7.5259 14.5625 Q7.5259 15.2656 7.1119 15.8828 Q6.6978 16.5 5.9244 16.8438 Q5.1509 17.1875 4.1822 17.1875 Q2.5572 17.1875 1.7134 16.5156 Q0.8697 15.8438 0.6353 14.5156 ZM10.3541 20.375 L9.3384 20.375 Q11.6822 16.6094 11.6822 12.8594 Q11.6822 11.3906 11.3384 9.9375 Q11.0728 8.7656 10.6041 7.6875 Q10.2916 6.9844 9.3384 5.3438 L10.3541 5.3438 Q11.8228 7.3125 12.5259 9.2812 Q13.1197 10.9844 13.1197 12.8438 Q13.1197 14.9531 12.315 16.9297 Q11.5103 18.9062 10.3541 20.375 Z"
         style="stroke:none;" />
    </g>
    <g
       id="g83"
       style="fill:rgb(38,38,38); text-rendering:geometricPrecision; image-rendering:optimizeQuality; color-rendering:optimizeQuality; stroke-linejoin:round; stroke:rgb(38,38,38); color-interpolation:linearRGB; stroke-width:0.8333;">
      <line
         id="line59"
         y1="220"
         x2="47"
         x1="47"
         style="fill:none;"
         y2="24" />
      <line
         id="line61"
         y1="220"
         x2="329"
         x1="329"
         style="fill:none;"
         y2="24" />
      <line
         id="line63"
         y1="220"
         x2="49.82"
         x1="47"
         style="fill:none;"
         y2="220" />
      <line
         id="line65"
         y1="171"
         x2="49.82"
         x1="47"
         style="fill:none;"
         y2="171" />
      <line
         id="line67"
         y1="122"
         x2="49.82"
         x1="47"
         style="fill:none;"
         y2="122" />
      <line
         id="line69"
         y1="73"
         x2="49.82"
         x1="47"
         style="fill:none;"
         y2="73" />
      <line
         id="line71"
         y1="24"
         x2="49.82"
         x1="47"
         style="fill:none;"
         y2="24" />
      <line
         id="line73"
         y1="220"
         x2="326.18"
         x1="329"
         style="fill:none;"
         y2="220" />
      <line
         id="line75"
         y1="171"
         x2="326.18"
         x1="329"
         style="fill:none;"
         y2="171" />
      <line
         id="line77"
         y1="122"
         x2="326.18"
         x1="329"
         style="fill:none;"
         y2="122" />
      <line
         id="line79"
         y1="73"
         x2="326.18"
         x1="329"
         style="fill:none;"
         y2="73" />
      <line
         id="line81"
         y1="24"
         x2="326.18"
         x1="329"
         style="fill:none;"
         y2="24" />
    </g>
    <g
       id="g87"
       style="font-size:15px; fill:rgb(38,38,38); text-rendering:geometricPrecision; image-rendering:optimizeQuality; color-rendering:optimizeQuality; font-family:'SansSerif'; stroke:rgb(38,38,38); color-interpolation:linearRGB;"
       transform="translate(42.3333,220)">
      <path
         id="path85"
         d="M-8.375 0.7031 Q-8.375 -1.2031 -7.9844 -2.3594 Q-7.5938 -3.5156 -6.8203 -4.1484 Q-6.0469 -4.7812 -4.875 -4.7812 Q-4.0156 -4.7812 -3.3594 -4.4297 Q-2.7031 -4.0781 -2.2812 -3.4297 Q-1.8594 -2.7812 -1.6172 -1.8359 Q-1.375 -0.8906 -1.375 0.7031 Q-1.375 2.5938 -1.7656 3.7578 Q-2.1562 4.9219 -2.9297 5.5547 Q-3.7031 6.1875 -4.875 6.1875 Q-6.4219 6.1875 -7.3125 5.0625 Q-8.375 3.7344 -8.375 0.7031 ZM-7.0156 0.7031 Q-7.0156 3.3438 -6.3984 4.2188 Q-5.7812 5.0938 -4.875 5.0938 Q-3.9688 5.0938 -3.3516 4.2188 Q-2.7344 3.3438 -2.7344 0.7031 Q-2.7344 -1.9531 -3.3516 -2.8203 Q-3.9688 -3.6875 -4.8906 -3.6875 Q-5.7969 -3.6875 -6.3438 -2.9219 Q-7.0156 -1.9375 -7.0156 0.7031 Z"
         style="stroke:none;" />
    </g>
    <g
       id="g91"
       style="font-size:15px; fill:rgb(38,38,38); text-rendering:geometricPrecision; image-rendering:optimizeQuality; color-rendering:optimizeQuality; font-family:'SansSerif'; stroke:rgb(38,38,38); color-interpolation:linearRGB;"
       transform="translate(42.3333,171)">
      <path
         id="path89"
         d="M-1.4531 4.7344 L-1.4531 6 L-8.5469 6 Q-8.5625 5.5312 -8.3906 5.0781 Q-8.125 4.3594 -7.5234 3.6562 Q-6.9219 2.9531 -5.7969 2.0312 Q-4.0469 0.5938 -3.4297 -0.2422 Q-2.8125 -1.0781 -2.8125 -1.8281 Q-2.8125 -2.6094 -3.375 -3.1484 Q-3.9375 -3.6875 -4.8438 -3.6875 Q-5.7969 -3.6875 -6.3672 -3.1172 Q-6.9375 -2.5469 -6.9375 -1.5312 L-8.2969 -1.6719 Q-8.1562 -3.1875 -7.25 -3.9844 Q-6.3438 -4.7812 -4.8125 -4.7812 Q-3.2656 -4.7812 -2.3672 -3.9219 Q-1.4688 -3.0625 -1.4688 -1.7969 Q-1.4688 -1.1562 -1.7266 -0.5312 Q-1.9844 0.0938 -2.6016 0.7812 Q-3.2188 1.4688 -4.6406 2.6719 Q-5.8281 3.6562 -6.1641 4.0156 Q-6.5 4.375 -6.7188 4.7344 L-1.4531 4.7344 Z"
         style="stroke:none;" />
    </g>
    <g
       id="g95"
       style="font-size:15px; fill:rgb(38,38,38); text-rendering:geometricPrecision; image-rendering:optimizeQuality; color-rendering:optimizeQuality; font-family:'SansSerif'; stroke:rgb(38,38,38); color-interpolation:linearRGB;"
       transform="translate(42.3333,122)">
      <path
         id="path93"
         d="M-4.1562 6 L-4.1562 3.4219 L-8.8125 3.4219 L-8.8125 2.2188 L-3.9062 -4.7344 L-2.8281 -4.7344 L-2.8281 2.2188 L-1.375 2.2188 L-1.375 3.4219 L-2.8281 3.4219 L-2.8281 6 L-4.1562 6 ZM-4.1562 2.2188 L-4.1562 -2.625 L-7.5156 2.2188 L-4.1562 2.2188 Z"
         style="stroke:none;" />
    </g>
    <g
       id="g99"
       style="font-size:15px; fill:rgb(38,38,38); text-rendering:geometricPrecision; image-rendering:optimizeQuality; color-rendering:optimizeQuality; font-family:'SansSerif'; stroke:rgb(38,38,38); color-interpolation:linearRGB;"
       transform="translate(42.3333,73)">
      <path
         id="path97"
         d="M-1.5312 -2.1094 L-2.8438 -2 Q-3.0156 -2.7812 -3.3438 -3.1406 Q-3.875 -3.7031 -4.6562 -3.7031 Q-5.2969 -3.7031 -5.7656 -3.3438 Q-6.3906 -2.8906 -6.75 -2.0234 Q-7.1094 -1.1562 -7.125 0.4688 Q-6.6562 -0.2656 -5.9609 -0.6172 Q-5.2656 -0.9688 -4.5156 -0.9688 Q-3.2031 -0.9688 -2.2734 0 Q-1.3438 0.9688 -1.3438 2.5156 Q-1.3438 3.5312 -1.7812 4.3984 Q-2.2188 5.2656 -2.9766 5.7266 Q-3.7344 6.1875 -4.7031 6.1875 Q-6.3594 6.1875 -7.3984 4.9766 Q-8.4375 3.7656 -8.4375 0.9688 Q-8.4375 -2.1406 -7.2812 -3.5469 Q-6.2812 -4.7812 -4.5781 -4.7812 Q-3.3125 -4.7812 -2.5078 -4.0703 Q-1.7031 -3.3594 -1.5312 -2.1094 ZM-6.9219 2.5156 Q-6.9219 3.2031 -6.6328 3.8281 Q-6.3438 4.4531 -5.8203 4.7734 Q-5.2969 5.0938 -4.7344 5.0938 Q-3.8906 5.0938 -3.2891 4.4219 Q-2.6875 3.75 -2.6875 2.5938 Q-2.6875 1.4844 -3.2812 0.8438 Q-3.875 0.2031 -4.7812 0.2031 Q-5.6719 0.2031 -6.2969 0.8438 Q-6.9219 1.4844 -6.9219 2.5156 Z"
         style="stroke:none;" />
    </g>
    <g
       id="g103"
       style="font-size:15px; fill:rgb(38,38,38); text-rendering:geometricPrecision; image-rendering:optimizeQuality; color-rendering:optimizeQuality; font-family:'SansSerif'; stroke:rgb(38,38,38); color-interpolation:linearRGB;"
       transform="translate(42.3333,24)">
      <path
         id="path101"
         d="M-6.3438 0.1719 Q-7.1719 -0.125 -7.5625 -0.6797 Q-7.9531 -1.2344 -7.9531 -2.0156 Q-7.9531 -3.1875 -7.1172 -3.9844 Q-6.2812 -4.7812 -4.875 -4.7812 Q-3.4688 -4.7812 -2.6094 -3.9609 Q-1.75 -3.1406 -1.75 -1.9688 Q-1.75 -1.2344 -2.1484 -0.6797 Q-2.5469 -0.125 -3.3438 0.1719 Q-2.3438 0.5 -1.8281 1.2188 Q-1.3125 1.9375 -1.3125 2.9375 Q-1.3125 4.3125 -2.2891 5.25 Q-3.2656 6.1875 -4.8594 6.1875 Q-6.4375 6.1875 -7.4141 5.2422 Q-8.3906 4.2969 -8.3906 2.8906 Q-8.3906 1.8438 -7.8594 1.1406 Q-7.3281 0.4375 -6.3438 0.1719 ZM-6.6094 -2.0625 Q-6.6094 -1.2969 -6.1172 -0.8125 Q-5.625 -0.3281 -4.8438 -0.3281 Q-4.0781 -0.3281 -3.5938 -0.8047 Q-3.1094 -1.2812 -3.1094 -1.9844 Q-3.1094 -2.7031 -3.6094 -3.2031 Q-4.1094 -3.7031 -4.8594 -3.7031 Q-5.6094 -3.7031 -6.1094 -3.2188 Q-6.6094 -2.7344 -6.6094 -2.0625 ZM-7.0312 2.9062 Q-7.0312 3.4688 -6.7656 3.9922 Q-6.5 4.5156 -5.9766 4.8047 Q-5.4531 5.0938 -4.8438 5.0938 Q-3.8906 5.0938 -3.2812 4.4922 Q-2.6719 3.8906 -2.6719 2.9531 Q-2.6719 2 -3.3047 1.375 Q-3.9375 0.75 -4.8906 0.75 Q-5.8125 0.75 -6.4219 1.3672 Q-7.0312 1.9844 -7.0312 2.9062 Z"
         style="stroke:none;" />
    </g>
    <g
       id="g107"
       style="font-size:16.5px; fill:rgb(38,38,38); text-rendering:geometricPrecision; image-rendering:optimizeQuality; color-rendering:optimizeQuality; font-family:'SansSerif'; stroke:rgb(38,38,38); color-interpolation:linearRGB;"
       transform="translate(30,121.9999) rotate(-90)">
      <path
         id="path105"
         d="M-22.1406 -4 L-25.2969 -12.2969 L-23.8125 -12.2969 L-22.0312 -7.3281 Q-21.7344 -6.5312 -21.5 -5.6562 Q-21.3125 -6.3125 -20.9688 -7.2344 L-19.125 -12.2969 L-17.6875 -12.2969 L-20.8281 -4 L-22.1406 -4 ZM-8.9401 -0.625 Q-10.112 -2.0938 -10.9166 -4.0703 Q-11.7213 -6.0469 -11.7213 -8.1562 Q-11.7213 -10.0156 -11.112 -11.7188 Q-10.4088 -13.6875 -8.9401 -15.6562 L-7.9401 -15.6562 Q-8.8776 -14.0312 -9.1901 -13.3281 Q-9.6588 -12.25 -9.9401 -11.0781 Q-10.2682 -9.625 -10.2682 -8.1406 Q-10.2682 -4.3906 -7.9401 -0.625 L-8.9401 -0.625 ZM-6.1434 -4 L-6.1434 -12.2969 L-4.8934 -12.2969 L-4.8934 -11.1406 Q-4.5027 -11.75 -3.8543 -12.1172 Q-3.2059 -12.4844 -2.3777 -12.4844 Q-1.4559 -12.4844 -0.8621 -12.1016 Q-0.2684 -11.7188 -0.034 -11.0312 Q0.9504 -12.4844 2.5285 -12.4844 Q3.7629 -12.4844 4.427 -11.8047 Q5.091 -11.125 5.091 -9.7031 L5.091 -4 L3.7004 -4 L3.7004 -9.2344 Q3.7004 -10.0781 3.5598 -10.4453 Q3.4191 -10.8125 3.0598 -11.0391 Q2.7004 -11.2656 2.216 -11.2656 Q1.341 -11.2656 0.7629 -10.6875 Q0.1848 -10.1094 0.1848 -8.8281 L0.1848 -4 L-1.2215 -4 L-1.2215 -9.3906 Q-1.2215 -10.3281 -1.5652 -10.7969 Q-1.909 -11.2656 -2.6902 -11.2656 Q-3.284 -11.2656 -3.784 -10.9531 Q-4.284 -10.6406 -4.5105 -10.0391 Q-4.7371 -9.4375 -4.7371 -8.3125 L-4.7371 -4 L-6.1434 -4 ZM6.5127 -3.7969 L9.8409 -15.6562 L10.9659 -15.6562 L7.6534 -3.7969 L6.5127 -3.7969 ZM11.5883 -6.4844 L12.9789 -6.7031 Q13.0883 -5.8594 13.6273 -5.4141 Q14.1664 -4.9688 15.1195 -4.9688 Q16.0883 -4.9688 16.557 -5.3672 Q17.0258 -5.7656 17.0258 -6.2969 Q17.0258 -6.7656 16.6195 -7.0469 Q16.3227 -7.2344 15.182 -7.5156 Q13.6352 -7.9062 13.0336 -8.1953 Q12.432 -8.4844 12.1273 -8.9844 Q11.8227 -9.4844 11.8227 -10.0938 Q11.8227 -10.6562 12.0727 -11.125 Q12.3227 -11.5938 12.7602 -11.9062 Q13.0883 -12.1562 13.6586 -12.3203 Q14.2289 -12.4844 14.8695 -12.4844 Q15.8539 -12.4844 16.5883 -12.2031 Q17.3227 -11.9219 17.6742 -11.4453 Q18.0258 -10.9688 18.1664 -10.1562 L16.7914 -9.9688 Q16.6977 -10.6094 16.2445 -10.9688 Q15.7914 -11.3281 14.9789 -11.3281 Q14.0102 -11.3281 13.5961 -11.0078 Q13.182 -10.6875 13.182 -10.2656 Q13.182 -9.9844 13.3539 -9.7656 Q13.5258 -9.5469 13.8852 -9.3906 Q14.1039 -9.3125 15.1352 -9.0312 Q16.6195 -8.6406 17.2133 -8.3828 Q17.807 -8.125 18.143 -7.6406 Q18.4789 -7.1562 18.4789 -6.4375 Q18.4789 -5.7344 18.0648 -5.1172 Q17.6508 -4.5 16.8773 -4.1562 Q16.1039 -3.8125 15.1352 -3.8125 Q13.5102 -3.8125 12.6664 -4.4844 Q11.8227 -5.1562 11.5883 -6.4844 ZM21.307 -0.625 L20.2914 -0.625 Q22.6352 -4.3906 22.6352 -8.1406 Q22.6352 -9.6094 22.2914 -11.0625 Q22.0258 -12.2344 21.557 -13.3125 Q21.2445 -14.0156 20.2914 -15.6562 L21.307 -15.6562 Q22.7758 -13.6875 23.4789 -11.7188 Q24.0727 -10.0156 24.0727 -8.1562 Q24.0727 -6.0469 23.268 -4.0703 Q22.4633 -2.0938 21.307 -0.625 Z"
         style="stroke:none;" />
    </g>
    <g
       id="g111"
       style="font-size:15px; fill:rgb(38,38,38); text-rendering:geometricPrecision; image-rendering:optimizeQuality; color-rendering:optimizeQuality; font-family:'mwb_cmsy10'; stroke:rgb(38,38,38); color-interpolation:linearRGB;"
       transform="translate(47,20)">
      <path
         id="path109"
         d="M2.2031 -0.4375 Q2.2031 -0.5469 2.2812 -0.6406 L5.3906 -3.75 L2.2812 -6.875 Q2.2031 -6.9375 2.2031 -7.0625 Q2.2031 -7.1719 2.2891 -7.2734 Q2.375 -7.375 2.5 -7.375 Q2.6094 -7.375 2.7344 -7.2656 L5.8438 -4.1719 L8.9219 -7.2656 Q9.0469 -7.375 9.1406 -7.375 Q9.2656 -7.375 9.3594 -7.2812 Q9.4531 -7.1875 9.4531 -7.0625 Q9.4531 -6.9375 9.375 -6.875 L6.25 -3.75 L9.375 -0.6406 Q9.4531 -0.5469 9.4531 -0.4375 Q9.4531 -0.3125 9.3594 -0.2188 Q9.2656 -0.125 9.1406 -0.125 Q9.0312 -0.125 8.9219 -0.2344 L5.8438 -3.3281 L2.7344 -0.2344 Q2.625 -0.125 2.5 -0.125 Q2.375 -0.125 2.2891 -0.2266 Q2.2031 -0.3281 2.2031 -0.4375 Z"
         style="stroke:none;" />
    </g>
    <g
       id="g115"
       style="font-size:15px; fill:rgb(38,38,38); text-rendering:geometricPrecision; image-rendering:optimizeQuality; color-rendering:optimizeQuality; font-family:'SansSerif'; stroke:rgb(38,38,38); color-interpolation:linearRGB;"
       transform="translate(59,20)">
      <path
         id="path113"
         d="M5.5938 0 L4.2656 0 L4.2656 -8.4062 Q3.7969 -7.9531 3.0234 -7.4922 Q2.25 -7.0312 1.6406 -6.8125 L1.6406 -8.0938 Q2.7344 -8.6094 3.5625 -9.3438 Q4.3906 -10.0781 4.7344 -10.7812 L5.5938 -10.7812 L5.5938 0 ZM8.9673 -5.2969 Q8.9673 -7.2031 9.3579 -8.3594 Q9.7485 -9.5156 10.522 -10.1484 Q11.2954 -10.7812 12.4673 -10.7812 Q13.3267 -10.7812 13.9829 -10.4297 Q14.6392 -10.0781 15.061 -9.4297 Q15.4829 -8.7812 15.7251 -7.8359 Q15.9673 -6.8906 15.9673 -5.2969 Q15.9673 -3.4062 15.5767 -2.2422 Q15.186 -1.0781 14.4126 -0.4453 Q13.6392 0.1875 12.4673 0.1875 Q10.9204 0.1875 10.0298 -0.9375 Q8.9673 -2.2656 8.9673 -5.2969 ZM10.3267 -5.2969 Q10.3267 -2.6562 10.9438 -1.7812 Q11.561 -0.9062 12.4673 -0.9062 Q13.3735 -0.9062 13.9907 -1.7812 Q14.6079 -2.6562 14.6079 -5.2969 Q14.6079 -7.9531 13.9907 -8.8203 Q13.3735 -9.6875 12.4517 -9.6875 Q11.5454 -9.6875 10.9985 -8.9219 Q10.3267 -7.9375 10.3267 -5.2969 Z"
         style="stroke:none;" />
    </g>
    <g
       id="g119"
       style="fill:rgb(38,38,38); text-rendering:geometricPrecision; color-rendering:optimizeQuality; image-rendering:optimizeQuality; font-family:'SansSerif'; stroke:rgb(38,38,38); color-interpolation:linearRGB;"
       transform="translate(76,13)">
      <path
         id="path117"
         d="M0.375 -2.5781 L0.375 -3.6406 L3.625 -3.6406 L3.625 -2.5781 L0.375 -2.5781 ZM4.4857 -2.2656 L5.5482 -2.4062 Q5.7201 -1.5156 6.1576 -1.1172 Q6.5951 -0.7188 7.2201 -0.7188 Q7.9701 -0.7188 8.4857 -1.2344 Q9.0013 -1.75 9.0013 -2.5156 Q9.0013 -3.2344 8.5247 -3.7109 Q8.0482 -4.1875 7.3138 -4.1875 Q7.0169 -4.1875 6.5638 -4.0625 L6.6888 -5 Q6.7982 -4.9844 6.8607 -4.9844 Q7.5326 -4.9844 8.0716 -5.3359 Q8.6107 -5.6875 8.6107 -6.4219 Q8.6107 -7 8.2201 -7.3828 Q7.8294 -7.7656 7.2044 -7.7656 Q6.5951 -7.7656 6.181 -7.375 Q5.7669 -6.9844 5.6576 -6.2188 L4.5951 -6.4062 Q4.7826 -7.4531 5.4701 -8.0391 Q6.1576 -8.625 7.1732 -8.625 Q7.8763 -8.625 8.4701 -8.3203 Q9.0638 -8.0156 9.3763 -7.5 Q9.6888 -6.9844 9.6888 -6.3906 Q9.6888 -5.8438 9.3919 -5.3828 Q9.0951 -4.9219 8.5169 -4.6562 Q9.2669 -4.4844 9.6888 -3.9297 Q10.1107 -3.375 10.1107 -2.5312 Q10.1107 -1.4062 9.2904 -0.625 Q8.4701 0.1562 7.2201 0.1562 Q6.0951 0.1562 5.3451 -0.5234 Q4.5951 -1.2031 4.4857 -2.2656 Z"
         style="stroke:none;" />
    </g>
    <g
       id="g123"
       style="stroke-linecap:butt;fill:rgb(0, 114, 189);text-rendering:geometricPrecision;image-rendering:optimizeQuality;color-rendering:optimizeQuality;stroke-linejoin:round;stroke:rgb(0, 114, 189);color-interpolation:linearRGB;stroke-width:2;stroke-miterlimit:10;stroke-dasharray:none">
      <path
         id="path121"
         style="fill:none;fill-rule:evenodd;stroke-width:2;stroke-miterlimit:10;stroke-dasharray:none"
         d="M47 220 L49.82 205.9421 L52.64 193.0941 L55.46 181.352 L58.28 170.6205 L61.1 160.8126 L63.92 151.8489 L66.74 143.6567 L69.56 136.1695 L72.38 129.3268 L75.2 123.073 L78.02 117.3575 L80.84 112.1339 L83.66 107.3599 L86.48 102.9968 L89.3 99.0092 L92.12 95.3649 L94.94 92.0342 L97.76 88.9901 L100.58 86.2081 L103.4 83.6655 L106.22 81.3417 L109.04 79.218 L111.86 77.277 L114.68 75.5031 L117.5 73.8819 L120.32 72.4002 L123.14 71.046 L125.96 69.8084 L128.78 68.6773 L131.6 67.6436 L134.42 66.6988 L137.24 65.8353 L140.06 65.0462 L142.88 64.325 L145.7 63.6658 L148.52 63.0634 L151.34 62.5129 L154.16 62.0097 L156.98 61.5498 L159.8 61.1295 L162.62 60.7454 L165.44 60.3944 L168.26 60.0735 L171.08 59.7803 L173.9 59.5123 L176.72 59.2674 L179.54 59.0436 L182.36 58.839 L185.18 58.652 L188 58.4811 L190.82 58.325 L193.64 58.1822 L196.46 58.0518 L199.28 57.9326 L202.1 57.8236 L204.92 57.724 L207.74 57.633 L210.56 57.5499 L213.38 57.4739 L216.2 57.4044 L219.02 57.3409 L221.84 57.2828 L224.66 57.2298 L227.48 57.1813 L230.3 57.1371 L233.12 57.0966 L235.94 57.0596 L238.76 57.0258 L241.58 56.9948 L244.4 56.9666 L247.22 56.9408 L250.04 56.9172 L252.86 56.8956 L255.68 56.8759 L258.5 56.8579 L261.32 56.8415 L264.14 56.8264 L266.96 56.8127 L269.78 56.8001 L272.6 56.7886 L275.42 56.7781 L278.24 56.7685 L281.06 56.7598 L283.88 56.7517 L286.7 56.7444 L289.52 56.7377 L292.34 56.7316 L295.16 56.726 L297.98 56.7209 L300.8 56.7162 L303.62 56.712 L306.44 56.7081 L309.26 56.7045 L312.08 56.7013 L314.9 56.6983 L317.72 56.6956 L320.54 56.6931 L323.36 56.6908 L326.18 56.6887 L329 56.6868" />
    </g>
  </g>
</svg>
